<?xml version="1.0" encoding="utf-8"?>
<!-- Generator: Adobe Illustrator 21.0.2, SVG Export Plug-In . SVG Version: 6.00 Build 0)  -->
<svg version="1.1" id="a1494278934400" xmlns:svgjs="http://svgjs.com/svgjs"
	 xmlns="http://www.w3.org/2000/svg" xmlns:xlink="http://www.w3.org/1999/xlink" x="0px" y="0px" viewBox="0 0 360 275"
	 style="enable-background:new 0 0 360 275;" xml:space="preserve">
<style type="text/css">
	.st0{fill:#FFFFFF;stroke:#FFFFFF;}
	.st1{fill:#FFFFFF;}
</style>
<g id="SvgjsUse1027">
	<path class="st0" d="M196.9,79.1c0,0-1.2-2.8-4.6-2.8s-5.6,2.2-5.6,2.2s2.9-5.7,10.1-5.7s12.2,5.5,13.4,7.5c0,0-5.6-4.6-8.2-4.3
		C199.5,76.3,197.9,78,196.9,79.1z M204.3,85.9c0.7-0.1,1-0.2,1.7-1.2c0.6-1,0-2.7,0-2.7c-2.7,0.2-5.4,3.4-5.4,3.4
		C201.6,85.6,203.6,86.1,204.3,85.9z M193.9,85.5c0,0-2.8-3.2-5.4-3.4c0,0-0.6,1.7,0,2.7s0.9,1.1,1.7,1.2
		C190.8,86.1,192.8,85.6,193.9,85.5z M197.3,93.6c0,0,0.1-0.1,0.2-0.1c0,0,0.9-0.7,1.6-1.4c0.7-0.7,0.9-1.9,0.9-1.9
		c0-0.1,0-0.1-0.1-0.1c0,0-0.9,0.7-1.3,0.4s-0.6-1.7-0.7-2c0-0.3-0.3-1.2-0.3-1.2c0-0.1-0.1-0.2-0.1-0.2s0,0.1-0.1,0.2
		c0,0-0.3,0.9-0.3,1.2s-0.2,1.8-0.7,2s-1.3-0.4-1.3-0.4c-0.1-0.1-0.2,0-0.1,0.1c0,0,0.2,1.2,0.9,1.9s1.6,1.4,1.6,1.4
		C197.3,93.5,197.3,93.6,197.3,93.6z M211.1,93.7c0.1,1.2,0.6,3,1,4.3s2.6,3.9,2.6,3.9c-2.3-4.3-2.4-12.7-2.4-12.7
		S211,92.6,211.1,93.7z M206.5,110.6c0.3,4.7-3.1,11.2-3.1,11.2c-0.4,0.8-2.9,4.6-3,5s-4.7,5.5-4.9,5.8c-0.2,0.2-4.8,4.9-5,5.2
		c-0.2,0.2-5.1,4.4-6,5.2c-0.8,0.7-1.3,1.7-1.3,1.7s0.4-0.2,1.3-0.8c0.9-0.6,7.7-5.9,8.4-6.4c0.8-0.6,7.4-7.5,8.7-9.2
		c1.2-1.7,5-7.4,5.6-8.8c0.6-1.3,1.2-2.9,2.3-9.3s-5.4-9.9-5.1-10.3s1-3,1-3s-2.3,2.8-6.3,3C205.5,101.6,206.2,105.8,206.5,110.6z
		 M199.8,161.6c0,0-7.9-7.5-17.8-1.4c0,0-1-3.4-1.4-3.2s-9.1,6.3-12.8,5.9c0,0-4.3,5.7-9.2,4.3c0,0-8.8,6.7-14,1.8
		c0,0,1-9.9,6.5-18.8c5.6-8.9,10.2-16.3,10.3-19.8c0.1-3.4,1-14.3,5.3-21.1c4.4-6.8,10.5-11.5,13.7-11.2c3.1,0.3,6.1,2.4,7.2,5.4
		c0,0,2.9-5.1,6.1-3.8c3.2,1.3,4.9,2.9,8.9,3.7c0,0-4.2,0.8-5.8,0.1c-1.6-0.7-3.6-1.7-4.6-1c-0.8,0.6-1.2,0.3-4.6,4
		c-3.3,3.6-15.5,16-16.2,16.9c0.3-0.7,4.7-8,5.8-9c0,0-3.7-1.9-6.1-1.1s-4.2,0.8-5.8,5.7c-1.6,4.9-1.1,7.2-1.3,10.4
		c-0.2,3.2-2.9,8.4-2.9,8.4s5.4,0.7,12.2,9c0,0-12.2-6.2-13.4-5.4c0,0,5.3,5.4,5,5.4s-7-3.9-7.7-2.8s-6.3,10.5-7.8,13.9
		c-1.4,3.3-3,7-2.8,9.1c0,0,5.2-5.9,6-5.6c0.8,0.3-4.3,5.4-3.2,6.7s16-8.5,16-8.5s-4.8,4.6-4.3,5c0.4,0.4,13.1-10.4,14-10.7
		s-6.8,6.8-6.7,7.2s9.1-4.2,13.9-7.9c4.8-3.7,12.3-8,12.5-8.1c0.2,0-5.6,7.8-2.9,9.1C195.1,155.8,200.3,158,199.8,161.6z
		 M168.5,111.7c5.7-0.8,9.7,1.4,10.1,1.4c0.4,0,7.5-7.9,7.5-7.9c-1.4-4.6-5.8-4.7-5.8-4.7C174.4,100.4,168.5,111.7,168.5,111.7z
		 M171.6,123.5L171.6,123.5L171.6,123.5z M199.9,147.7c2.1,0.6,5.8-1,5.8-1s-0.4,0.1-1.3-0.9c-0.9-0.9,11-20.6,11-20.6
		C215,124.9,197.8,147.1,199.9,147.7z"/>
</g>
<g id="SvgjsUse1039">
	<path class="st1" d="M84.5,184.3v2.1h-8.4v4.9h7.8v2.1h-7.8v5.3h8.8v2.1h-11v-16.5C73.9,184.3,84.5,184.3,84.5,184.3z M106,184.3
		v2.1h-5.3v14.4h-2.2v-14.4h-5.3v-2.1H106z M121.2,184.3c1.6,0,2.9,0.4,3.8,1.2s1.4,1.9,1.4,3.4c0,1.1-0.4,2.1-1.1,2.9
		c-0.8,0.8-1.7,1.3-2.9,1.5l0,0l4.7,7.5h-2.8l-4.2-7.3h-2.5v7.3h-2.2v-16.5C115.3,184.3,121.2,184.3,121.2,184.3z M120.5,191.5
		c1.2,0,2-0.2,2.6-0.6c0.6-0.4,0.8-1.1,0.8-2c0-1.8-1.1-2.6-3.4-2.6h-3v5.3C117.5,191.5,120.5,191.5,120.5,191.5z M143.9,183.9
		c2.4,0,4.5,0.8,6.1,2.4s2.5,3.7,2.5,6.2c0,1.6-0.4,3.1-1.1,4.4c-0.7,1.3-1.8,2.4-3.1,3.1s-2.8,1.1-4.4,1.1c-1.6,0-3.1-0.4-4.4-1.1
		c-1.3-0.8-2.3-1.8-3.1-3.1c-0.7-1.3-1.1-2.8-1.1-4.4c0-2.4,0.8-4.5,2.4-6.2S141.4,183.9,143.9,183.9z M137.7,192.5
		c0,1.9,0.6,3.4,1.7,4.7c1.2,1.3,2.6,1.9,4.5,1.9c1.8,0,3.3-0.6,4.4-1.9c1.2-1.2,1.8-2.8,1.8-4.7s-0.6-3.4-1.7-4.7
		c-1.2-1.2-2.7-1.9-4.5-1.9s-3.2,0.6-4.4,1.9C138.3,189,137.7,190.6,137.7,192.5z M181.9,184.3c1.6,0,2.9,0.4,3.8,1.2
		c0.9,0.8,1.4,1.9,1.4,3.4c0,1.1-0.4,2.1-1.1,2.9c-0.8,0.8-1.7,1.3-2.9,1.5l0,0l4.7,7.5H185l-4.2-7.3h-2.5v7.3H176v-16.5
		L181.9,184.3L181.9,184.3z M181.3,191.5c1.2,0,2-0.2,2.6-0.6c0.6-0.4,0.8-1.1,0.8-2c0-1.8-1.1-2.6-3.4-2.6h-3v5.3L181.3,191.5
		L181.3,191.5z M204.4,184.3l7,16.5h-2.6l-1.7-4.1h-7.8l-1.6,4.1h-2.6l7.3-16.5H204.4L204.4,184.3z M200.1,194.7h6.2l-3.1-7.6l0,0
		L200.1,194.7z M222.7,184.3v16.5h-2.2v-16.5H222.7z M236.1,184.3v14.4h7.6v2.1h-9.8v-16.5H236.1L236.1,184.3z M255.1,184.3v16.5
		h-2.2v-16.5H255.1z M269.2,184.3l9.1,13.5l0,0v-13.5h2.2v16.5h-2.8l-9.2-13.5l0,0v13.5h-2.2v-16.5H269.2z M299.2,183.9
		c2.7,0,4.8,0.7,6.1,2.1l-1.6,1.7c-1.2-1.2-2.7-1.7-4.6-1.7c-1.8,0-3.3,0.6-4.5,1.9s-1.7,2.8-1.7,4.7s0.6,3.5,1.8,4.7
		c1.2,1.2,2.7,1.9,4.5,1.9c1.7,0,3.1-0.3,4-0.9v-4.6h-3.6v-2.1h5.9v8.1c-0.8,0.5-1.8,0.9-2.9,1.1s-2.2,0.4-3.3,0.4
		c-2.6,0-4.7-0.8-6.3-2.4c-1.6-1.6-2.5-3.7-2.5-6.2c0-2.4,0.8-4.5,2.4-6.2C294.7,184.7,296.7,183.9,299.2,183.9z M321.4,183.9
		c2.1,0,3.7,0.6,4.7,1.9l-1.8,1.7c-0.3-0.4-0.7-0.8-1.2-1c-0.5-0.3-1.1-0.4-1.8-0.4c-1,0-1.7,0.2-2.3,0.7s-0.9,1.1-0.9,1.8
		c0,1.2,0.8,2.1,2.5,2.6l2.1,0.7c1.2,0.4,2,0.9,2.7,1.6c0.6,0.7,0.9,1.6,0.9,2.7c0,1.5-0.5,2.7-1.6,3.7s-2.4,1.4-4.1,1.4
		c-2.4,0-4.1-0.8-5.3-2.3l1.8-1.6c0.4,0.6,0.8,1,1.5,1.3c0.6,0.3,1.3,0.5,2,0.5c0.9,0,1.7-0.3,2.3-0.8c0.6-0.5,1-1.2,1-2
		c0-0.6-0.2-1.1-0.6-1.4c-0.4-0.4-1.1-0.7-2.1-1l-1.5-0.5c-1.5-0.5-2.5-1.1-3.1-1.9s-0.9-1.8-0.9-3c0-1.3,0.5-2.4,1.6-3.3
		C318.4,184.3,319.7,183.9,321.4,183.9L321.4,183.9z"/>
</g>
<g id="SvgjsUse1035">
	<path class="st1" d="M63.7,177.5c0,0.1,0,0.3,0,0.3V208c0,0.1,0,0.3-0.1,0.4c-0.1,0.1-0.3,0.1-0.4,0.1s-0.3,0-0.4-0.1
		s-0.1-0.3-0.1-0.4v-28.6L49,198.5c0.1,0.1,0.4,0.5,0.7,1.1c0.4,0.5,0.8,1.1,1.2,1.8c0.5,0.7,1,1.4,1.5,2c0.5,0.7,1.1,1.4,1.5,2
		s0.8,1.2,1.1,1.6s0.4,0.7,0.4,0.8s0,0.3-0.1,0.4c-0.1,0.1-0.3,0.1-0.4,0.1c-0.3,0-0.4-0.1-0.4-0.3l-21.7-30.3
		c-0.1-0.1-0.1-0.3-0.1-0.4c0-0.1,0-0.3,0.1-0.4c0.1-0.1,0.3-0.1,0.4-0.1c0.3,0,0.4,0.1,0.5,0.3L48,197.4L62.5,177
		c0.1-0.1,0.3-0.3,0.4-0.3s0.3,0,0.4,0.1C63.4,177.1,63.7,177.3,63.7,177.5L63.7,177.5z M50.7,207.9c0,0.1,0,0.3-0.1,0.4
		s-0.3,0.1-0.4,0.1c-0.3,0-0.4-0.1-0.4-0.3L34,185.8v21.7c0,0.1,0,0.3-0.1,0.4c-0.1,0.1-0.3,0.1-0.4,0.1s-0.3,0-0.4-0.1
		c-0.1-0.1-0.1-0.3-0.1-0.4V184c0-0.1,0-0.4,0.1-0.5s0.3-0.3,0.4-0.3c0.3,0,0.4,0.1,0.4,0.3c0.1,0.3,0.5,0.8,1.2,1.6
		c0.5,0.8,1.4,1.8,2.2,3c0.8,1.1,1.8,2.5,2.7,3.8c1,1.4,2,2.9,3,4.2c1.1,1.5,2,2.9,3,4.2s1.8,2.6,2.6,3.7c0.7,1.1,1.4,1.9,1.8,2.6
		C50.4,207.5,50.7,207.9,50.7,207.9z"/>
</g>
</svg>
